<svg width="24" height="24" viewBox="0 0 24 24" fill="none" xmlns="http://www.w3.org/2000/svg">
<path d="M12.0107 0C5.37778 0 0 5.36903 0 11.9911C0 17.0726 3.16267 21.4158 7.63022 23.1623C7.52178 22.2145 7.43289 20.7537 7.66933 19.719C7.88622 18.7818 9.07378 13.7589 9.07378 13.7589C9.07378 13.7589 8.71822 13.0383 8.71822 11.9823C8.71822 10.3139 9.68711 9.07144 10.8924 9.07144C11.92 9.07144 12.4142 9.84174 12.4142 10.7594C12.4142 11.7852 11.7618 13.3258 11.4151 14.7564C11.1289 15.9509 12.0178 16.9271 13.1947 16.9271C15.3298 16.9271 16.9707 14.6765 16.9707 11.4409C16.9707 8.56915 14.9049 6.5653 11.9484 6.5653C8.528 6.5653 6.52267 9.12114 6.52267 11.7657C6.52267 12.7916 6.91733 13.8974 7.41155 14.499C7.51111 14.618 7.52 14.7262 7.48978 14.8451C7.40089 15.2196 7.19289 16.0396 7.15378 16.2065C7.104 16.423 6.976 16.4727 6.74844 16.3644C5.24622 15.6634 4.30756 13.482 4.30756 11.716C4.30756 7.93551 7.056 4.46206 12.2453 4.46206C16.4071 4.46206 19.6498 7.42257 19.6498 11.3894C19.6498 15.3563 17.04 18.8493 13.4222 18.8493C12.2062 18.8493 11.0596 18.2174 10.6738 17.4684C10.6738 17.4684 10.0711 19.758 9.92178 20.3207C9.65511 21.3661 8.92267 22.6688 8.42844 23.4693C9.55556 23.8154 10.7413 24.0018 11.9876 24.0018C18.6204 24.0018 23.9982 18.6327 23.9982 12.0106C24.0196 5.36903 18.6418 0 12.0107 0Z" fill="#E2E7F0"/>
</svg>
