<svg width="24" height="24" viewBox="0 0 24 24" fill="none" xmlns="http://www.w3.org/2000/svg">
<path d="M12 24C18.6274 24 24 18.6274 24 12C24 5.37258 18.6274 0 12 0C5.37258 0 0 5.37258 0 12C0 18.6274 5.37258 24 12 24Z" fill="#E2E7F0"/>
<path d="M19.6658 7.87429C19.4827 7.13714 18.9404 6.55619 18.2507 6.3581C17.0027 6 12 6 12 6C12 6 6.99733 6 5.74933 6.3581C5.06133 6.55619 4.51911 7.13524 4.33422 7.87429C4 9.21143 4 12 4 12C4 12 4 14.7886 4.33422 16.1257C4.51733 16.8629 5.05956 17.4438 5.74933 17.6419C6.99733 18 12 18 12 18C12 18 17.0027 18 18.2507 17.6419C18.9387 17.4438 19.4809 16.8648 19.6658 16.1257C20 14.7886 20 12 20 12C20 12 20 9.21143 19.6658 7.87429ZM10.4 14.5714V9.42857L14.5564 12L10.4 14.5714Z" fill="#5D6669"/>
</svg>
