<svg width="24" height="24" viewBox="0 0 24 24" fill="none" xmlns="http://www.w3.org/2000/svg">
<path d="M12 24C18.6274 24 24 18.6274 24 12C24 5.37258 18.6274 0 12 0C5.37258 0 0 5.37258 0 12C0 18.6274 5.37258 24 12 24Z" fill="#E2E7F0"/>
<path d="M12 5.80611C14.0178 5.80611 14.256 5.81322 15.0525 5.85056C15.7885 5.88434 16.1885 6.007 16.4551 6.11011C16.8071 6.247 17.0596 6.41056 17.3245 6.67545C17.5894 6.94034 17.7529 7.191 17.8898 7.54478C17.9929 7.81145 18.1156 8.21145 18.1494 8.94745C18.1849 9.74389 18.1938 9.98389 18.1938 11.9999C18.1938 14.0159 18.1867 14.2559 18.1494 15.0523C18.1156 15.7883 17.9929 16.1883 17.8898 16.455C17.7529 16.807 17.5894 17.0594 17.3245 17.3243C17.0596 17.5892 16.8089 17.7528 16.4551 17.8897C16.1885 17.9928 15.7885 18.1154 15.0525 18.1492C14.256 18.1848 14.0178 18.1937 12 18.1937C9.98224 18.1937 9.74402 18.1866 8.94758 18.1492C8.21158 18.1154 7.81158 17.9928 7.54491 17.8897C7.19291 17.7528 6.94047 17.5892 6.67558 17.3243C6.41069 17.0594 6.24713 16.8088 6.11024 16.455C6.00713 16.1883 5.88447 15.7883 5.85069 15.0523C5.81513 14.2559 5.80624 14.0159 5.80624 11.9999C5.80624 9.98389 5.81335 9.74389 5.85069 8.94745C5.88447 8.21145 6.00713 7.81145 6.11024 7.54478C6.24713 7.19278 6.41069 6.94034 6.67558 6.67545C6.94047 6.41056 7.19113 6.247 7.54491 6.11011C7.81158 6.007 8.21158 5.88434 8.94758 5.85056C9.74402 5.815 9.98402 5.80611 12 5.80611ZM12 4.44434C9.94847 4.44434 9.69069 4.45322 8.88535 4.49056C8.0818 4.52789 7.53247 4.65411 7.05069 4.84256C6.55469 5.03634 6.13336 5.29411 5.71202 5.71367C5.29247 6.13322 5.03291 6.55456 4.84091 7.05234C4.65424 7.53234 4.52624 8.08167 4.48891 8.887C4.45158 9.69234 4.44269 9.95011 4.44269 12.0017C4.44269 14.0532 4.45158 14.311 4.48891 15.1163C4.52624 15.9199 4.65247 16.4692 4.84091 16.951C5.03469 17.447 5.29247 17.8683 5.71202 18.2897C6.13158 18.7092 6.55291 18.9688 7.05069 19.1608C7.53069 19.3474 8.08002 19.4754 8.88535 19.5128C9.69069 19.5501 9.94847 19.559 12 19.559C14.0516 19.559 14.3094 19.5501 15.1147 19.5128C15.9182 19.4754 16.4676 19.3492 16.9494 19.1608C17.4454 18.967 17.8667 18.7092 18.288 18.2897C18.7076 17.8701 18.9671 17.4488 19.1591 16.951C19.3458 16.471 19.4738 15.9217 19.5111 15.1163C19.5485 14.311 19.5574 14.0532 19.5574 12.0017C19.5574 9.95011 19.5485 9.69234 19.5111 8.887C19.4738 8.08345 19.3476 7.53411 19.1591 7.05234C18.9654 6.55634 18.7076 6.135 18.288 5.71367C17.8685 5.29411 17.4471 5.03456 16.9494 4.84256C16.4694 4.65589 15.92 4.52789 15.1147 4.49056C14.3094 4.45322 14.0516 4.44434 12 4.44434Z" fill="#5D6669"/>
<path d="M12.0001 8.12085C9.85786 8.12085 8.12097 9.85774 8.12097 12C8.12097 14.1422 9.85786 15.8791 12.0001 15.8791C14.1423 15.8791 15.8792 14.1422 15.8792 12C15.8792 9.85774 14.1423 8.12085 12.0001 8.12085ZM12.0001 14.5191C10.6099 14.5191 9.48097 13.392 9.48097 12C9.48097 10.608 10.6081 9.48085 12.0001 9.48085C13.3921 9.48085 14.5192 10.608 14.5192 12C14.5192 13.392 13.3921 14.5191 12.0001 14.5191Z" fill="#5D6669"/>
<path d="M16.0339 8.8729C16.5346 8.8729 16.9405 8.46698 16.9405 7.96624C16.9405 7.4655 16.5346 7.05957 16.0339 7.05957C15.5331 7.05957 15.1272 7.4655 15.1272 7.96624C15.1272 8.46698 15.5331 8.8729 16.0339 8.8729Z" fill="#5D6669"/>
</svg>
